<svg xmlns="http://www.w3.org/2000/svg" x="0px" y="0px" width="50" height="50" viewBox="0 0 50 50"
style="fill:#007bff;">
    <path d="M39.369,7.047c-0.325-2.346-1.412-3.664-1.471-3.731C37.67,3.058,37.33,2.93,36.987,2.989 c-0.34,0.056-0.628,0.281-0.762,0.599c-0.006,0.013-0.185,0.435-0.477,1.078C32.539,2.966,28.883,2,25,2 c-5.167,0-9.933,1.706-13.773,4.583c-0.314-0.881-0.476-1.699-0.461-2.429c0.007-0.365-0.186-0.705-0.502-0.887 C9.948,3.085,9.559,3.092,9.246,3.28C8.355,3.823,7.644,4.682,7.158,5.584C6.768,4.912,6.345,4.11,6.001,3.395 C5.834,3.049,5.484,2.828,5.1,2.828c-0.003,0-0.006,0-0.008,0c-0.388,0.003-0.738,0.229-0.9,0.582 C4.095,3.619,2.138,7.968,4.18,11.171c-0.323,0.034-0.661,0.056-0.956,0.048c-0.404-0.028-0.763,0.226-0.927,0.59 c-0.163,0.364-0.095,0.79,0.174,1.085c0.131,0.144,0.907,0.973,1.96,1.692c-0.439,0.436-0.546,0.926-0.552,1.311 C2.673,18.689,2,21.765,2,25c0,12.703,10.297,23,23,23s23-10.297,23-23C48,17.735,44.629,11.262,39.369,7.047z M5.365,6.481 c0.468,0.811,0.993,1.615,1.427,2.003C7.068,8.731,7.46,8.806,7.806,8.677c0.348-0.128,0.596-0.438,0.645-0.805 C8.513,7.41,8.727,6.839,9.049,6.309c0.279,1.077,0.743,2.134,1.272,3.11c0.005-0.004,0.009-0.008,0.014-0.012 c0.502,0.925,1.295,1.9,1.729,2.5c1.11,1.533,7.482,5.602,7.482,5.602s2.009-1.903,3.7-2.009c0.841-0.053,1.465,0.109,1.975,0.321 c0.008,0.009,0.01,0.022,0.019,0.031c0.029,0.031,0.719,0.786,0.719,2.305v1h1c1.133,0,1.474,0.134,1.561,0.246 c0.013,0.016,0.045,0.136-0.029,0.418c-0.14,0.534,0.181,1.081,0.715,1.221c0.085,0.021,0.17,0.032,0.254,0.032 c0.443,0,0.849-0.298,0.967-0.747c0.278-1.067-0.022-1.757-0.323-2.146c-0.544-0.705-1.439-0.924-2.213-0.992 c-0.03-0.206-0.07-0.398-0.115-0.581c0.758-0.16,0.969-0.843,0.969-0.843l1.216-3.014l0.687,1.057c0,0,0.374-0.642,0.749-1.545 l0.981-2.023l0.972,0.695c0.344,0.396,0.626,0.68,0.869,0.699c0.016-0.019,0.035-0.034,0.049-0.054 c0.165-0.235,0.328-0.485,0.491-0.741c1.082-1.778,2.42-4.511,2.42-4.511l-0.003,0.019c0.009-0.019,0.019-0.04,0.028-0.059 c0.198,0.669,0.337,1.535,0.268,2.592c-0.12,1.836-1.098,3.362-1.106,3.375c-0.025,0.038-0.027,0.083-0.047,0.124 c0.082,0.021,2.295,0.573,2.97,0.106c-0.211,1.533-3.536,4.609-3.536,4.609s1.156,0.125,1.562,0.532 c-1.163,1.427-4.406,4.375-6.72,5.01c-1.031,0.283-6.713,0.317-6.343,2.801s6.713,3.066,6.713,3.066l-3.431,1.654 c0,0,1.822,3.198,2.26,3.542c-2.333,0.333-4.489-1.417-4.489-1.417l-1.719,6.25c0,0-2-1.875-2.667-5.125 c-0.75,2.313-4.167,4.583-4.167,4.583s0.667-3.417,0.333-5.739c-1.625,1.219-5,1.281-5,1.281l3.562-3.625 c0,0-1.334-0.875-3.501-1.721c1.85-0.264,6.449-1.744,5.392-2.854s-3.859-2.643-6.132-2.907c-2.273-0.264-4.113-1.913-4.113-1.913 s2.16-0.823,3.083-1c-0.709-0.031-1.479-0.521-2.708-1.604c-0.02-0.022-0.043-0.041-0.063-0.063 c-0.921-0.688-1.742-1.464-1.752-1.849c0,0,0.014-0.013,0.039-0.032c-0.004-0.013-0.01-0.023-0.014-0.036 c0.056-0.022,0.127-0.044,0.202-0.067c0.125-0.054,0.314-0.116,0.588-0.17c0.469-0.144,0.969-0.352,1.155-0.738 c0.029-0.089,0.056-0.179,0.059-0.277c0.017-0.487-0.32-0.915-0.797-1.014c-0.488-0.101-1.019-0.384-1.509-0.719 c0.358-0.103,0.697-0.243,0.966-0.434c0.253-0.18,0.408-0.466,0.42-0.776c0.005-0.13-0.022-0.253-0.07-0.369 c-0.059-0.167-0.148-0.321-0.287-0.437C5.204,9.756,5.131,7.929,5.365,6.481z"></path>
</svg>